<svg width="96" height="97" viewBox="0 0 96 97" fill="none" xmlns="http://www.w3.org/2000/svg">
<path d="M48.1093 0L47.8907 0C21.4414 0 0 21.4477 0 47.9048L0 48.1235C0 74.5805 21.4414 96.0282 47.8907 96.0282H48.1093C74.5586 96.0282 96 74.5805 96 48.1235V47.9048C96 21.4477 74.5586 0 48.1093 0Z" fill="black"/>
<path d="M22.8935 31.9169C21.6289 30.7427 21 29.2893 21 27.5601C21 25.8308 21.6323 24.3135 22.8935 23.136C24.1581 21.9618 25.786 21.373 27.7805 21.373C29.7749 21.373 31.3389 21.9618 32.6002 23.136C33.8648 24.3101 34.4937 25.7871 34.4937 27.5601C34.4937 29.3331 33.8614 30.7427 32.6002 31.9169C31.3356 33.091 29.7312 33.6798 27.7805 33.6798C25.8297 33.6798 24.1581 33.091 22.8935 31.9169ZM33.4309 38.6523V74.6507H22.0594L22.0594 38.6523H33.4309Z" fill="#FEFFFC"/>
<path d="M71.286 42.2096C73.7648 44.901 75.0025 48.5951 75.0025 53.2984V74.016H64.2029V54.7585C64.2029 52.3867 63.5874 50.543 62.3598 49.2309C61.1321 47.9188 59.4774 47.2594 57.4056 47.2594C55.3337 47.2594 53.6789 47.9155 52.4513 49.2309C51.2237 50.543 50.6082 52.3867 50.6082 54.7585V74.016H39.7446V38.5525H50.6082V43.2559C51.708 41.6881 53.1913 40.45 55.0546 39.5383C56.9179 38.6266 59.0132 38.1724 61.344 38.1724C65.4944 38.1724 68.8106 39.5181 71.286 42.2062V42.2096Z" fill="#FEFFFC"/>
</svg>
